:SAMPLES-PER-SECOND 30
:FULLY-SPECIFIED
:DEGREES
1
root  84.8995 39.393 -0.564778 -63.2841 -87.4758 60.4623
RightUpLeg  -1.26611 -7.73918 -4.52959
RightLeg  6.93695 10.1724 0.0368345
RightFoot  -3.12386 -0.0585703 0.473727
RightToes  -1.74624e-010 0 -3.6325e-017
Spine  4.89904 0.636656 4.90964
Spine1  4.28057 1.81922 -4.46533
HEad  -17.0358 -6.54017 -4.52404
LeftShoulder1  -0.325657 4.3608 -31.6615
LeftArm  1.61438 7.84311 -42.7757
LeftForeArm  27.9281 -15.5106 -6.52317
LeftHand  -0.02925 5.59542 1.08215
RightShoulder  -0.972765 -6.08894 31.047
RightArm  17.1562 3.71017 47.3281
RightForeArm  18.5148 9.98882 7.66297
RightHand  -0.117578 4.93454 -1.61928
LeftUpLeg  -0.888996 5.81873 1.19526
LeftLeg  1.80796 3.4342 -0.310247
LeftFoot  0.436883 0.0904498 -0.803898
LeftToes  -3.96543e-010 8.93632e-011 -2.58531e-011
2
root  84.9063 39.393 -0.558921 -63.0233 -87.474 60.236
RightUpLeg  -1.34426 -7.71967 -4.52301
RightLeg  6.98109 10.1773 0.0306348
RightFoot  -3.10665 -0.0679544 0.619382
RightToes  -1.74624e-010 0 -3.6325e-017
Spine  4.84441 0.610478 4.87868
Spine1  4.3062 1.78179 -4.42748
HEad  -17.0208 -6.57608 -4.51609
LeftShoulder1  -0.325657 4.35498 -31.702
LeftArm  1.60966 7.81796 -42.7329
LeftForeArm  27.983 -15.4588 -6.55213
LeftHand  -0.0269374 5.52961 1.17276
RightShoulder  -0.962784 -6.06171 31.0536
RightArm  17.0725 3.72111 47.3308
RightForeArm  18.8253 9.97492 7.63512
RightHand  -0.080561 4.77567 -1.21732
LeftUpLeg  -0.976911 5.79822 1.18665
LeftLeg  1.89494 3.43168 -0.305701
LeftFoot  0.425853 0.0970016 -0.905726
LeftToes  -3.96543e-010 8.93632e-011 -2.58531e-011
3
root  84.908 39.393 -0.552147 -63.404 -87.464 60.5989
RightUpLeg  -1.29822 -7.7869 -4.57205
RightLeg  6.92582 10.2597 0.0573609
RightFoot  -3.09342 -0.0590491 0.481158
RightToes  -1.74624e-010 0 -3.6325e-017
Spine  4.72533 0.605802 4.77732
Spine1  4.50362 1.74989 -4.29176
HEad  -16.9235 -6.25663 -4.33605
LeftShoulder1  -0.32458 4.36189 -31.7836
LeftArm  1.95954 7.77485 -42.6546
LeftForeArm  27.5021 -15.5493 -6.56678
LeftHand  -0.0245929 5.88169 1.40575
RightShoulder  -0.974661 -6.09759 30.9958
RightArm  16.8685 3.74431 47.3993
RightForeArm  19.0485 9.94923 7.58003
RightHand  -0.0677643 4.77206 -1.06525
LeftUpLeg  -0.907711 5.77646 1.14468
LeftLeg  1.77019 3.45576 -0.29224
LeftFoot  0.48651 0.0898095 -0.793946
LeftToes  -3.96543e-010 8.93632e-011 -2.58531e-011
4
root  84.9128 39.393 -0.544544 -63.9642 -87.4572 61.1634
RightUpLeg  -1.34863 -7.81459 -4.61352
RightLeg  6.99383 10.3067 0.0904864
RightFoot  -3.08388 -0.0683949 0.626221
RightToes  -1.74624e-010 0 -3.6325e-017
Spine  4.74438 0.590134 4.89091
Spine1  4.4894 1.78443 -4.50726
HEad  -16.7133 -6.3962 -4.25492
LeftShoulder1  -0.312579 4.33029 -31.6858
LeftArm  2.02808 7.84359 -42.669
LeftForeArm  27.3364 -15.6454 -6.52516
LeftHand  -0.0229778 6.25735 1.28033
RightShoulder  -0.994827 -6.14297 31.1189
RightArm  16.8396 3.84715 47.3587
RightForeArm  19.4639 9.80134 7.60836
RightHand  -0.0209136 4.38246 -0.533712
LeftUpLeg  -0.92166 5.74555 1.11426
LeftLeg  1.79668 3.53539 -0.280199
LeftFoot  0.450024 0.0984657 -0.928482
LeftToes  -3.96543e-010 8.93632e-011 -2.58531e-011
5
root  84.9164 39.3929 -0.54007 -62.8292 -87.4136 60.0107
RightUpLeg  -1.32417 -7.87053 -4.65564
RightLeg  7.00308 10.3054 0.117903
RightFoot  -3.09731 -0.0611928 0.514434
RightToes  -1.74624e-010 0 -3.6325e-017
Spine  4.6426 0.535721 4.9075
Spine1  4.63637 1.75712 -4.61689
HEad  -16.7517 -6.69795 -4.10786
LeftShoulder1  -0.287185 4.26662 -31.5195
LeftArm  1.93136 7.87082 -42.7785
LeftForeArm  27.5623 -15.6174 -6.51837
LeftHand  -0.0266778 5.59185 1.33367
RightShoulder  -0.998732 -6.14377 31.2538
RightArm  16.905 3.89823 47.309
RightForeArm  19.2782 9.79239 7.63623
RightHand  -0.032572 4.39652 -0.669008
LeftUpLeg  -0.8981 5.73645 1.08982
LeftLeg  1.74465 3.47523 -0.303512
LeftFoot  0.459565 0.0899622 -0.79632
LeftToes  -3.96543e-010 8.93632e-011 -2.58531e-011
6
root  84.9153 39.391 -0.53993 -65.4115 -87.4929 62.5621
RightUpLeg  -1.28888 -7.80898 -4.60137
RightLeg  6.9715 10.3549 0.0735095
RightFoot  -3.08015 -0.0415571 0.209625
RightToes  -1.74624e-010 0 -3.6325e-017
Spine  4.55399 0.585077 4.89038
Spine1  4.8606 1.80708 -4.58818
HEad  -16.9031 -6.6848 -4.03354
LeftShoulder1  -0.290603 4.27434 -31.584
LeftArm  2.02085 7.83482 -42.7546
LeftForeArm  27.3561 -15.7321 -6.4681
LeftHand  -0.027183 5.47817 1.32126
RightShoulder  -0.994139 -6.13876 31.152
RightArm  16.9814 3.8349 47.37
RightForeArm  18.8661 9.96664 7.60915
RightHand  -0.0651706 4.42798 -1.0553
LeftUpLeg  -0.87073 5.85538 1.16866
LeftLeg  1.80887 3.44969 -0.383185
LeftFoot  0.394445 0.0897592 -0.793166
LeftToes  -3.96543e-010 8.93632e-011 -2.58531e-011
